<svg xmlns="http://www.w3.org/2000/svg"><symbol id="mecha-stilts" viewBox="0 0 219 256"><path d="M109.5 4l107.4 62v124l-107.4 62L2.1 190V66L109.5 4z"/><path fill="#fff" d="M47.2 173.8a2.2 2.2 0 0 1-2-2 2.2 2.2 0 0 1 2-2.1h10.2v-12.8H47.2a1.9 1.9 0 0 1-2-2v-40.1a1.9 1.9 0 0 1 2-2.1h13.4c1.1-28.9 22.6-44.8 48.9-44.8s47.9 15.9 48.9 44.8h13.4a1.9 1.9 0 0 1 2.1 2.1v40.1a1.9 1.9 0 0 1-2.1 2h-10.1v12.8h10.1a2.3 2.3 0 0 1 2.1 2.1 2.2 2.2 0 0 1-2.1 2zm2-57v36h120.6v-36zm12.3 40.1v12.8h13v-12.8zm3.2-44.2h89.6c-1-26.2-21-40.7-44.8-40.7s-43.8 14.5-44.8 40.7zm13.9 44.2v12.8h20.3v-12.8zm24.4 0v12.8h13v-12.8zm55.2-13.8h-49.7a2.2 2.2 0 0 1-2-2.1 2.2 2.2 0 0 1 2-2h49.7a2.2 2.2 0 0 1 2 2 2.2 2.2 0 0 1-2 2.1zm-38.1 13.8v12.8h20.4v-12.8zm24.4 0v12.8h13.1v-12.8z"/></symbol><symbol id="super-domes" viewBox="0 0 218 256"><path d="M109 4.5l107.4 62v124l-107.4 62-107.4-62v-124L109 4.5z"/><path fill="#fff" d="M52.2 172.3a1.9 1.9 0 0 1-2.1-2v-24.6H23.3a2.3 2.3 0 0 1-2.1-2.1 2.2 2.2 0 0 1 2.1-2h15.2v-13.3a1.9 1.9 0 0 1 2.1-2h7.9a64.6 64.6 0 0 1 62.3-49.5c.2-.2.4-.2.8 0a64.3 64.3 0 0 1 61.9 49.5h8a1.9 1.9 0 0 1 2 2v13.3h15.3a2.2 2.2 0 0 1 2 2 2.2 2.2 0 0 1-2 2.1h-26.9v24.6a1.9 1.9 0 0 1-2 2zm-9.6-41.9v11.2h136.9v-11.2zM107 81.1c-26.1 1.6-47.9 20.6-54.2 45.2h21.8zm-52.8 64.6v22.6H109v-22.6zM109 85.2l-29.3 41.1H109zm4.1-4.3v45.4h56.2a60.6 60.6 0 0 0-56.2-45.4zm0 64.8v22.6h9.1v-22.6zm13.2 0v22.6h41.5v-22.6z"/></symbol><symbol id="space-bubble-icon" viewBox="0 0 221 256"><path d="M109.8 2.5L218.1 65v125l-108.3 62.5L1.6 190V65L109.8 2.5z"/><path fill="#fff" d="M48.7 178.2l-4.8-6.8a2.1 2.1 0 0 1 .2-2.4l17.1-20.2h-8.4a1.9 1.9 0 0 1-2.1-2V132a1.9 1.9 0 0 1 2.1-2h11.9a55.6 55.6 0 0 1-2.3-15.6 48.8 48.8 0 0 1 48.7-48.5c26.5 0 48.4 22 48.4 48.5a52.1 52.1 0 0 1-2.2 15.6h11.9a1.9 1.9 0 0 1 2 2v14.8a1.9 1.9 0 0 1-2 2h-10.5l16.8 20.2a2.1 2.1 0 0 1 0 2.4l-4.7 6.8a2.2 2.2 0 0 1-2.7.6l-9.8-5.1H61.2l-9.9 5.1a2.2 2.2 0 0 1-2.6-.6zm31.2-29.4H66.3l-18.1 21.4 2.9 4.1L85.8 156zm-25.1-14.7v10.6h112.3v-10.6zM69 130h83.9a48.5 48.5 0 0 0 2.5-15.6 44.5 44.5 0 0 0-88.9 0c0 5.3.4 10.8 2.5 15.6zm19.7 29.3l-19.5 10.3h27.9zm-3.5-10.5l17.2 20.8h14.8l17.3-20.8zm45.8 10.5l-8.4 10.3h27.9zm22.4-10.5h-13.6l-6.1 7.2 34.9 18.3 2.8-3.9z"/></symbol></svg>