<svg xmlns="http://www.w3.org/2000/svg"><symbol id="mecha-stilts" viewBox="0 0 219 256"><path d="M78.6 156.9H99v12.83H78.6zM109.5 72c-23.8 0-43.8 14.5-44.8 40.7h89.6c-1-26.2-21-40.7-44.8-40.7zm10.6 84.9h20.4v12.83h-20.4zm-58.6 0h13v12.83h-13zm41.5 0h13v12.83h-13z"/><path d="M109.5 4L2.1 66v124l107.4 62 107.4-62V66zm64.4 150.9a1.9 1.9 0 0 1-2.1 2h-10.1v12.8h10.1a2.3 2.3 0 0 1 2.1 2.1 2.2 2.2 0 0 1-2.1 2H47.2a2.2 2.2 0 0 1-2-2 2.2 2.2 0 0 1 2-2.1h10.2v-12.8H47.2a1.9 1.9 0 0 1-2-2v-40.1a1.9 1.9 0 0 1 2-2.1h13.4c1.1-28.9 22.6-44.8 48.9-44.8s47.9 15.9 48.9 44.8h13.4a1.9 1.9 0 0 1 2.1 2.1z"/><path d="M144.5 156.9h13v12.83h-13zm-95.3-4.1h120.6v-36H49.2zm59.3-13.8h49.7a2.2 2.2 0 0 1 2 2 2.2 2.2 0 0 1-2 2.1h-49.7a2.2 2.2 0 0 1-2-2.1 2.2 2.2 0 0 1 2-2z"/></symbol><symbol id="space-bubble-icon" viewBox="0 0 221 256"><path d="M79.9 148.8H66.3l-18.1 21.4 2.9 4.1L85.8 156l-5.9-7.2zm-25.1-14.7h112.3v10.67H54.8z"/><path d="M109.8 2.5L1.6 65v125l108.2 62.5L218.1 190V65zm65.7 168.9l-4.7 6.8a2.2 2.2 0 0 1-2.7.6l-9.8-5.1H61.2l-9.9 5.1a2.2 2.2 0 0 1-2.6-.6l-4.8-6.8a2.1 2.1 0 0 1 .2-2.4l17.1-20.2h-8.4a1.9 1.9 0 0 1-2.1-2V132a1.9 1.9 0 0 1 2.1-2h11.9a55.6 55.6 0 0 1-2.3-15.6 48.8 48.8 0 0 1 48.7-48.5c26.5 0 48.4 22 48.4 48.5a52.1 52.1 0 0 1-2.2 15.6h11.9a1.9 1.9 0 0 1 2 2v14.8a1.9 1.9 0 0 1-2 2h-10.5l16.8 20.2a2.1 2.1 0 0 1 0 2.4z"/><path d="M69.2 169.6h27.9l-8.4-10.3-19.5 10.3zm83.7-39.6a48.5 48.5 0 0 0 2.5-15.6 44.5 44.5 0 0 0-88.9 0c0 5.3.4 10.8 2.5 15.6zm-67.7 18.8l17.2 20.8h14.8l17.3-20.8H85.2zm54.6 0l-6.1 7.2 34.9 18.3 2.8-3.9-18-21.6h-13.6zm-17.2 20.8h27.9L131 159.3l-8.4 10.3z"/></symbol><symbol id="super-domes" viewBox="0 0 218 256"><path d="M54.2 145.7H109v22.61H54.2zm58.9-64.8v45.4h56.2a60.6 60.6 0 0 0-56.2-45.4zm-4.1 45.4V85.2l-29.3 41.1H109zm4.1 19.4h9.2v22.61h-9.2zM107 81.1c-26.1 1.6-47.9 20.6-54.2 45.2h21.8z"/><path d="M109 4.5L1.6 66.5v124l107.4 62 107.4-62v-124zm89.8 141.2h-26.9v24.6a1.9 1.9 0 0 1-2 2H52.2a1.9 1.9 0 0 1-2.1-2v-24.6H23.3a2.3 2.3 0 0 1-2.1-2.1 2.2 2.2 0 0 1 2.1-2h15.2v-13.3a1.9 1.9 0 0 1 2.1-2h7.9a64.6 64.6 0 0 1 62.3-49.5c.2-.2.4-.2.8 0a64.3 64.3 0 0 1 61.9 49.5h8a1.9 1.9 0 0 1 2 2v13.3h15.3a2.2 2.2 0 0 1 2 2 2.2 2.2 0 0 1-2 2.1z"/><path d="M42.6 130.4h136.9v11.2H42.6zm83.7 15.3h41.5v22.61h-41.5z"/></symbol></svg>